<svg xmlns="http://www.w3.org/2000/svg" width="24" height="24.002" viewBox="0 0 24 24.002">
  <defs>
    <style>
      .cls-1 {
        fill: gray;
        fill-rule: evenodd;
      }
    </style>
  </defs>
  <path id="パス_270" data-name="パス 270" class="cls-1" d="M24.565-.833,31,5.6,29.6,7,23.165.567A9.858,9.858,0,0,1,16.9,2.8,9.9,9.9,0,0,1,7-7.1,9.9,9.9,0,0,1,16.9-17a9.9,9.9,0,0,1,9.9,9.9A9.861,9.861,0,0,1,24.565-.833ZM16.9.822A7.92,7.92,0,0,0,24.82-7.1,7.92,7.92,0,0,0,16.9-15.02,7.92,7.92,0,0,0,8.98-7.1,7.92,7.92,0,0,0,16.9.822Z" transform="translate(-7 17)"/>
</svg>
